<?xml version="1.0" standalone="no"?>
<!DOCTYPE svg PUBLIC "-//W3C//DTD SVG 20010904//EN"
 "http://www.w3.org/TR/2001/REC-SVG-20010904/DTD/svg10.dtd">
<svg version="1.0" xmlns="http://www.w3.org/2000/svg"
 width="542.000000pt" height="377.000000pt" viewBox="0 0 542.000000 377.000000"
 preserveAspectRatio="xMidYMid meet">

<g transform="translate(0.000000,377.000000) scale(0.100000,-0.100000)"
fill="#000000" stroke="none">
<path d="M3320 3281 l-75 -6 3 -37 c3 -32 1 -38 -16 -38 -11 0 -23 -6 -26 -12
-3 -7 -4 0 -1 16 6 28 6 28 -32 21 -46 -8 -52 -13 -33 -25 17 -11 1 -13 -89
-14 -51 -1 -55 -3 -66 -31 -7 -16 -10 -38 -6 -47 6 -16 8 -16 40 -1 40 20 64
9 69 -31 3 -21 9 -26 31 -26 40 0 37 -30 -3 -31 -26 0 -28 -2 -11 -8 19 -8 19
-9 -3 -12 -23 -4 -23 -4 -4 -24 10 -11 27 -33 36 -48 10 -15 24 -27 31 -27 29
0 62 -39 63 -75 3 -65 15 -75 87 -75 58 0 65 2 65 20 0 11 1 23 1 28 1 4 -8
12 -21 19 -12 6 -25 15 -29 20 -15 22 -58 43 -88 43 -26 0 -34 5 -39 24 -4 16
-11 23 -20 19 -9 -3 -14 2 -14 17 0 17 5 21 27 18 24 -3 31 3 51 43 20 41 49
64 75 60 4 -1 -1 16 -12 37 -13 26 -16 43 -10 54 11 20 1 48 -17 48 -17 0 -18
22 -3 37 16 16 69 -4 70 -25 1 -24 9 -65 13 -69 2 -2 16 7 31 21 16 15 32 26
36 26 11 0 25 28 34 68 8 36 17 35 -145 23z m-44 -116 c0 -14 -4 -25 -8 -25
-5 0 -8 -6 -8 -14 0 -22 -20 -30 -36 -14 -13 13 -11 18 13 45 35 39 41 40 39
8z"/>
<path d="M411 3260 c-8 -4 -10 -138 -9 -436 l3 -429 212 -3 c204 -2 211 -2
206 17 -4 17 2 20 61 26 79 9 96 3 96 -29 0 -22 4 -25 35 -24 22 1 32 5 28 12
-4 6 1 5 10 -3 14 -11 18 -11 23 3 4 11 1 105 -5 134 -1 1 -46 2 -101 2 -66 0
-100 4 -100 11 0 7 32 10 99 7 l99 -3 6 50 c3 28 6 71 6 96 0 33 5 49 16 53 9
3 213 6 455 6 l439 0 0 261 0 260 -784 -2 c-432 -1 -790 -5 -795 -9z m29 -50
c0 -5 -4 -10 -10 -10 -5 0 -10 5 -10 10 0 6 5 10 10 10 6 0 10 -4 10 -10z
m412 3 c-51 -2 -132 -2 -180 0 -48 1 -6 3 93 3 99 0 138 -2 87 -3z m-412 -43
c0 -5 -4 -10 -10 -10 -5 0 -10 5 -10 10 0 6 5 10 10 10 6 0 10 -4 10 -10z
m305 0 c-3 -5 -12 -10 -20 -10 -8 0 -17 5 -20 10 -4 6 5 10 20 10 15 0 24 -4
20 -10z m178 3 c-23 -2 -64 -2 -90 0 -26 2 -7 3 42 3 50 0 71 -1 48 -3z m112
-3 c-3 -5 -12 -10 -20 -10 -8 0 -17 5 -20 10 -4 6 5 10 20 10 15 0 24 -4 20
-10z m178 3 c-23 -2 -64 -2 -90 0 -26 2 -7 3 42 3 50 0 71 -1 48 -3z m270 0
c-40 -2 -107 -2 -150 0 -43 1 -10 3 72 3 83 0 118 -2 78 -3z m-738 -43 c-3 -5
-13 -10 -21 -10 -8 0 -14 5 -14 10 0 6 9 10 21 10 11 0 17 -4 14 -10z m178 3
c-24 -2 -62 -2 -85 0 -24 2 -5 4 42 4 47 0 66 -2 43 -4z m112 -3 c-3 -5 -12
-10 -20 -10 -8 0 -17 5 -20 10 -4 6 5 10 20 10 15 0 24 -4 20 -10z m168 3
c-24 -2 -62 -2 -85 0 -24 2 -5 4 42 4 47 0 66 -2 43 -4z m345 0 c-54 -2 -142
-2 -195 0 -54 1 -10 3 97 3 107 0 151 -2 98 -3z m-807 -46 c-5 -5 -18 -7 -28
-3 -14 6 -15 9 -4 16 19 11 46 1 32 -13z m-294 7 c-3 -3 -12 -4 -19 -1 -8 3
-5 6 6 6 11 1 17 -2 13 -5z m471 -1 c-21 -2 -57 -2 -80 0 -24 2 -7 4 37 4 44
0 63 -2 43 -4z m120 -4 c-12 -7 -24 -7 -35 0 -15 9 -12 10 17 10 29 0 32 -1
18 -10z m175 4 c-23 -2 -64 -2 -90 0 -26 2 -7 3 42 3 50 0 71 -1 48 -3z m405
0 c-64 -2 -172 -2 -240 0 -68 1 -15 3 117 3 132 0 187 -2 123 -3z m-1171 -39
c-3 -3 -12 -4 -19 -1 -8 3 -5 6 6 6 11 1 17 -2 13 -5z m411 -1 c-49 -2 -127
-2 -175 0 -49 1 -9 3 87 3 96 0 136 -2 88 -3z m-411 -39 c-3 -3 -12 -4 -19 -1
-8 3 -5 6 6 6 11 1 17 -2 13 -5z m241 -1 c-10 -2 -28 -2 -40 0 -13 2 -5 4 17
4 22 1 32 -1 23 -4z m90 0 c-10 -2 -26 -2 -35 0 -10 3 -2 5 17 5 19 0 27 -2
18 -5z m145 0 c-24 -2 -62 -2 -85 0 -24 2 -5 4 42 4 47 0 66 -2 43 -4z m145 0
c-16 -2 -40 -2 -55 0 -16 2 -3 4 27 4 30 0 43 -2 28 -4z m160 0 c-21 -2 -57
-2 -80 0 -24 2 -7 4 37 4 44 0 63 -2 43 -4z m-291 -37 c3 -3 -41 -6 -98 -6
-57 0 -99 4 -92 8 14 9 181 8 190 -2z m-490 -2 c-3 -3 -12 -4 -19 -1 -8 3 -5
6 6 6 11 1 17 -2 13 -5z m266 -1 c-7 -2 -19 -2 -25 0 -7 3 -2 5 12 5 14 0 19
-2 13 -5z m-273 -33 c0 -5 -4 -10 -10 -10 -5 0 -10 5 -10 10 0 6 5 10 10 10 6
0 10 -4 10 -10z m495 0 c4 -6 -30 -10 -94 -10 -61 0 -101 4 -101 10 0 6 38 10
94 10 53 0 98 -4 101 -10z m425 0 c10 -6 -53 -10 -188 -10 -133 0 -201 3 -197
10 8 13 365 13 385 0z m-920 -40 c0 -5 -4 -10 -10 -10 -5 0 -10 5 -10 10 0 6
5 10 10 10 6 0 10 -4 10 -10z m0 -40 c0 -5 -4 -10 -10 -10 -5 0 -10 5 -10 10
0 6 5 10 10 10 6 0 10 -4 10 -10z m0 -40 c0 -5 -4 -10 -10 -10 -5 0 -10 5 -10
10 0 6 5 10 10 10 6 0 10 -4 10 -10z m618 -5 c3 -3 -99 -5 -227 -5 -128 0
-230 3 -228 8 5 8 447 5 455 -3z m-618 -35 c0 -5 -4 -10 -10 -10 -5 0 -10 5
-10 10 0 6 5 10 10 10 6 0 10 -4 10 -10z m837 -4 c4 -3 -149 -5 -338 -4 -228
1 -298 4 -209 8 168 6 540 4 547 -4z m-837 -36 c0 -5 -4 -10 -10 -10 -5 0 -10
5 -10 10 0 6 5 10 10 10 6 0 10 -4 10 -10z m380 0 c0 -6 -42 -10 -105 -10 -63
0 -105 4 -105 10 0 6 42 10 105 10 63 0 105 -4 105 -10z m-380 -34 c0 -3 -4
-8 -10 -11 -5 -3 -10 -1 -10 4 0 6 5 11 10 11 6 0 10 -2 10 -4z m7 -42 c-3 -3
-12 -4 -19 -1 -8 3 -5 6 6 6 11 1 17 -2 13 -5z m-7 -44 c0 -5 -4 -10 -10 -10
-5 0 -10 5 -10 10 0 6 5 10 10 10 6 0 10 -4 10 -10z m193 -7 c-13 -2 -33 -2
-45 0 -13 2 -3 4 22 4 25 0 35 -2 23 -4z m-193 -33 c0 -5 -4 -10 -10 -10 -5 0
-10 5 -10 10 0 6 5 10 10 10 6 0 10 -4 10 -10z m565 0 c4 -7 -65 -10 -200 -10
-135 0 -204 3 -200 10 4 6 82 10 200 10 118 0 196 -4 200 -10z m-195 -40 c0
-5 -9 -10 -20 -10 -11 0 -20 5 -20 10 0 6 9 10 20 10 11 0 20 -4 20 -10z m215
-80 c-4 -6 -60 -10 -135 -10 -75 0 -131 4 -135 10 -4 6 43 10 135 10 92 0 139
-4 135 -10z"/>
<path d="M3573 3253 c9 -9 19 -14 23 -11 10 10 -6 28 -24 28 -15 0 -15 -1 1
-17z"/>
<path d="M3816 3221 c-55 -29 -97 -36 -107 -20 -7 11 -9 10 -9 -3 0 -20 -39
-25 -70 -8 -26 14 -79 -41 -72 -75 3 -20 0 -25 -17 -25 -11 0 -21 5 -21 11 0
5 -5 7 -11 3 -8 -4 -8 -9 0 -17 14 -14 14 -57 1 -57 -5 0 -10 -15 -10 -32 0
-18 -7 -42 -15 -52 -32 -42 -12 -86 37 -86 31 0 48 -23 48 -67 0 -37 25 -108
38 -108 15 0 72 82 72 102 0 28 34 117 47 126 7 4 13 15 13 22 0 34 48 10 65
-32 12 -27 12 -28 19 -5 5 14 15 22 31 22 28 0 34 -8 39 -50 4 -39 16 -52 16
-17 0 14 5 29 10 32 6 3 10 14 10 25 0 10 7 20 15 24 9 3 15 18 15 36 0 18 5
30 13 30 22 0 50 59 43 91 -5 27 -3 29 23 29 16 0 32 -6 34 -12 4 -9 6 -8 6 2
1 9 15 24 32 34 20 12 27 22 21 28 -11 11 -108 29 -172 31 -25 1 -58 10 -73
20 -32 21 -25 21 -71 -2z m-211 -90 c3 -5 1 -12 -5 -16 -5 -3 -10 1 -10 9 0
18 6 21 15 7z m-22 -115 c18 -8 41 -17 52 -22 17 -7 15 -9 -14 -12 -18 -2 -38
1 -44 7 -6 6 -19 11 -29 11 -18 0 -24 11 -11 23 9 9 10 9 46 -7z"/>
<path d="M2694 3070 c-23 -5 -63 -21 -88 -37 l-46 -29 38 -37 c31 -30 40 -35
52 -25 12 11 12 10 2 -3 -6 -9 -8 -20 -4 -24 4 -5 2 -5 -5 -1 -16 9 -42 -32
-50 -78 l-6 -36 81 0 c93 0 92 -1 92 100 0 45 -4 70 -12 73 -10 4 -10 6 0 6 8
1 12 18 12 51 0 54 2 53 -66 40z m29 -107 c-7 -2 -19 -2 -25 0 -7 3 -2 5 12 5
14 0 19 -2 13 -5z m27 -140 c0 -7 -78 56 -87 70 -4 6 14 -6 40 -27 26 -21 47
-40 47 -43z"/>
<path d="M3098 3033 c7 -3 16 -2 19 1 4 3 -2 6 -13 5 -11 0 -14 -3 -6 -6z"/>
<path d="M2536 2971 c-10 -11 -15 -25 -11 -30 3 -6 2 -11 -4 -11 -15 0 -28
-29 -36 -82 l-7 -48 51 0 c46 0 51 2 51 22 0 12 10 41 21 66 l21 43 -28 30
c-33 34 -36 35 -58 10z"/>
<path d="M3944 2836 c-8 -21 -4 -25 19 -17 17 6 17 8 3 20 -13 11 -17 11 -22
-3z"/>
<path d="M4046 2807 c3 -10 9 -15 12 -12 3 3 0 11 -7 18 -10 9 -11 8 -5 -6z"/>
<path d="M2770 2662 c0 -72 4 -133 9 -136 16 -10 110 21 147 49 l36 28 -41 41
c-23 23 -56 57 -75 76 -18 19 -43 44 -54 54 l-22 19 0 -131z m47 -28 c-3 -3
-12 -4 -19 -1 -8 3 -5 6 6 6 11 1 17 -2 13 -5z"/>
<path d="M3697 2763 c-4 -3 -7 -16 -6 -27 0 -19 1 -19 10 3 10 24 8 36 -4 24z"/>
<path d="M3978 2749 c-17 -13 -28 -30 -28 -45 0 -20 5 -24 31 -24 33 0 59 -19
59 -44 0 -14 -25 -16 -205 -16 -204 0 -205 0 -210 -22 -3 -13 -6 -110 -7 -216
l-3 -192 445 0 445 0 0 200 c0 164 -3 202 -15 214 -13 13 -53 16 -228 17 -116
1 -212 5 -212 9 0 4 7 22 16 40 15 30 15 35 0 66 -19 40 -47 44 -88 13z m-170
-226 c-10 -2 -28 -2 -40 0 -13 2 -5 4 17 4 22 1 32 -1 23 -4z m570 -120 l4
-83 -321 0 -321 0 0 85 0 85 318 -2 317 -3 3 -82z m-561 -109 c36 -10 16 -24
-33 -24 -41 0 -53 7 -37 23 8 9 41 9 70 1z m106 -51 c-35 -2 -91 -2 -125 0
-35 2 -7 3 62 3 69 0 97 -1 63 -3z"/>
<path d="M1090 2670 l0 -60 439 0 c242 0 446 3 455 6 45 17 -17 24 -218 24
-239 0 -252 3 -235 48 8 22 9 22 234 22 143 0 225 4 225 10 0 7 -157 10 -450
10 l-450 0 0 -60z m120 18 c0 -6 6 -6 15 2 16 13 35 6 35 -15 0 -20 -19 -28
-35 -15 -7 6 -16 7 -19 2 -5 -9 -41 -7 -75 4 -10 3 -10 8 -3 17 13 16 82 19
82 5z m227 -4 c3 -8 1 -20 -4 -25 -7 -7 -12 -2 -15 15 -6 28 9 36 19 10z m-57
-9 c0 -8 -4 -15 -9 -15 -13 0 -22 16 -14 24 11 11 23 6 23 -9z"/>
<path d="M3260 2721 c0 -5 7 -14 15 -21 19 -16 19 -29 -1 -51 -18 -20 -11 -41
11 -33 8 4 13 10 10 14 -3 4 2 11 11 14 10 4 14 12 10 22 -4 10 1 18 13 21 11
3 21 13 24 24 5 17 -1 19 -44 19 -27 0 -49 -4 -49 -9z"/>
<path d="M1557 2693 c-10 -3 -17 -12 -15 -21 3 -15 27 -17 226 -20 l223 -2 -3
22 c-3 23 -3 23 -208 25 -113 1 -213 -1 -223 -4z"/>
<path d="M1090 2427 l0 -44 447 1 c411 1 448 2 451 18 2 12 -5 18 -30 21 l-33
4 33 1 c25 2 32 6 32 22 0 20 -7 20 -450 20 l-450 0 0 -43z m358 -4 c-15 -2
-42 -2 -60 0 -18 2 -6 4 27 4 33 0 48 -2 33 -4z m140 0 c-15 -2 -42 -2 -60 0
-18 2 -6 4 27 4 33 0 48 -2 33 -4z m150 0 c-15 -2 -42 -2 -60 0 -18 2 -6 4 27
4 33 0 48 -2 33 -4z m140 0 c-15 -2 -42 -2 -60 0 -18 2 -6 4 27 4 33 0 48 -2
33 -4z"/>
<path d="M2466 2308 c-8 -12 -13 -25 -10 -30 3 -4 207 -8 455 -8 382 0 449 2
449 14 0 8 -7 22 -16 30 -14 14 -67 16 -439 16 -423 0 -424 0 -439 -22z m44
-8 c0 -5 -4 -10 -10 -10 -5 0 -10 5 -10 10 0 6 5 10 10 10 6 0 10 -4 10 -10z
m35 0 c3 -5 -1 -10 -9 -10 -9 0 -16 5 -16 10 0 6 4 10 9 10 6 0 13 -4 16 -10z
m35 0 c0 -5 -4 -10 -10 -10 -5 0 -10 5 -10 10 0 6 5 10 10 10 6 0 10 -4 10
-10z"/>
<path d="M2608 2193 c12 -2 30 -2 40 0 9 3 -1 5 -23 4 -22 0 -30 -2 -17 -4z"/>
<path d="M1099 2121 c-31 -24 -43 -85 -22 -103 7 -6 13 -20 14 -32 0 -21 0
-21 11 2 6 12 16 22 22 22 6 0 18 13 27 29 l17 29 53 -14 c56 -15 79 -7 79 25
0 32 -19 46 -62 47 -24 1 -59 5 -78 9 -27 5 -41 2 -61 -14z"/>
<path d="M1158 1993 c7 -3 16 -2 19 1 4 3 -2 6 -13 5 -11 0 -14 -3 -6 -6z"/>
<path d="M1230 1982 c0 -5 7 -13 16 -16 10 -4 14 -1 12 6 -5 15 -28 23 -28 10z"/>
<path d="M1653 1917 c-10 -16 -11 -131 -2 -149 6 -12 21 -18 42 -18 18 0 38
-5 45 -12 9 -9 15 -9 24 0 7 7 27 12 45 12 26 0 36 5 42 23 10 25 8 127 -2
144 -9 14 -185 14 -194 0z m69 -77 c-3 -51 -6 -59 -18 -49 -14 12 -20 90 -7
102 20 20 28 3 25 -53z m86 20 c4 -40 -5 -80 -18 -80 -5 0 -9 27 -9 61 1 41 4
59 12 56 7 -2 13 -18 15 -37z"/>
<path d="M3183 1891 c-100 -3 -187 -10 -192 -16 -6 -6 -13 -137 -17 -316 l-7
-307 25 -16 c23 -15 67 -17 453 -13 355 3 428 6 436 18 5 8 9 150 9 316 0 261
-2 304 -16 317 -13 13 -43 16 -167 16 -84 0 -195 2 -247 4 -52 2 -177 0 -277
-3z m-117 -38 c-10 -10 -19 5 -10 18 6 11 8 11 12 0 2 -7 1 -15 -2 -18z m44 6
c0 -5 -4 -9 -10 -9 -5 0 -10 7 -10 16 0 8 5 12 10 9 6 -3 10 -10 10 -16z m-70
7 c0 -11 -19 -15 -25 -6 -3 5 1 10 9 10 9 0 16 -2 16 -4z m505 -201 c0 -6 -44
-11 -107 -13 -93 -2 -108 0 -108 13 0 13 15 15 108 13 63 -2 107 -7 107 -13z
m-75 -45 c0 -5 -16 -10 -35 -10 -19 0 -35 5 -35 10 0 6 16 10 35 10 19 0 35
-4 35 -10z m171 -76 c9 -11 10 -20 2 -32 -8 -14 -31 -18 -124 -20 -156 -4
-279 6 -286 24 -3 8 0 21 7 29 19 23 382 22 401 -1z m-236 -124 c3 -5 -1 -10
-9 -10 -9 0 -16 5 -16 10 0 6 4 10 9 10 6 0 13 -4 16 -10z m45 0 c0 -5 -7 -10
-16 -10 -8 0 -12 5 -9 10 3 6 10 10 16 10 5 0 9 -4 9 -10z m40 0 c0 -5 -7 -10
-16 -10 -8 0 -12 5 -9 10 3 6 10 10 16 10 5 0 9 -4 9 -10z"/>
<path d="M1497 1663 c-4 -7 -16 -48 -34 -118 -3 -11 -10 -43 -16 -72 l-11 -52
-61 -4 c-33 -2 47 -4 178 -5 232 -2 237 -2 237 18 0 11 4 28 9 38 11 18 51
171 51 190 0 14 -345 18 -353 5z"/>
<path d="M1186 1323 c-15 -86 -18 -93 -36 -93 -11 0 -20 10 -25 27 -14 58 -50
68 -126 33 -28 -12 -66 -20 -106 -20 -56 0 -65 -3 -112 -40 -55 -43 -75 -70
-85 -111 -12 -54 60 -79 202 -71 91 5 107 -1 117 -50 5 -21 3 -33 -6 -39 -11
-7 -11 -9 2 -9 32 0 85 -173 75 -247 -5 -39 -4 -43 5 -23 9 22 12 23 19 9 6
-9 15 -50 21 -90 6 -41 15 -83 19 -94 8 -19 9 -19 9 3 1 19 4 21 20 12 11 -5
23 -19 26 -30 6 -17 15 -20 76 -20 75 0 87 11 40 38 -26 15 -30 23 -36 82 -3
36 -13 90 -20 120 -12 50 -65 305 -65 316 0 6 42 5 77 -2 26 -5 33 -15 56 -72
14 -37 40 -119 58 -182 18 -63 42 -151 54 -195 26 -93 25 -92 164 -94 83 -1
84 -1 66 19 -10 11 -23 20 -28 20 -6 0 -29 9 -51 20 -37 18 -41 23 -42 58 -1
21 -16 106 -34 188 -17 82 -43 203 -56 269 -18 84 -31 125 -45 137 -12 10 -46
19 -97 23 -42 3 -90 9 -105 12 -31 5 -31 5 -11 106 3 15 1 27 -4 27 -5 0 -13
-17 -16 -37z"/>
<path d="M1904 1333 c3 -16 20 -109 37 -208 41 -230 50 -270 43 -185 -3 36
-19 142 -35 235 -16 94 -29 173 -29 178 0 4 -5 7 -11 7 -6 0 -8 -11 -5 -27z"/>
<path d="M3944 1160 c0 -52 1 -74 3 -47 2 26 2 68 0 95 -2 26 -3 4 -3 -48z"/>
<path d="M3968 1188 c5 -113 9 -125 10 -30 1 50 -1 92 -5 92 -5 0 -7 -28 -5
-62z"/>
<path d="M606 1195 c4 -8 8 -15 10 -15 2 0 4 7 4 15 0 8 -4 15 -10 15 -5 0 -7
-7 -4 -15z"/>
<path d="M631 1104 c0 -11 3 -14 6 -6 3 7 2 16 -1 19 -3 4 -6 -2 -5 -13z"/>
<path d="M641 1064 c0 -11 3 -14 6 -6 3 7 2 16 -1 19 -3 4 -6 -2 -5 -13z"/>
<path d="M745 953 l-20 -16 20 8 c11 5 67 11 125 15 l105 7 -105 1 c-83 1
-109 -2 -125 -15z"/>
<path d="M715 920 c-10 -16 -25 -74 -18 -66 8 7 32 76 27 76 -1 0 -6 -5 -9
-10z"/>
<path d="M2002 815 c0 -16 2 -22 5 -12 2 9 2 23 0 30 -3 6 -5 -1 -5 -18z"/>
<path d="M681 794 c0 -11 3 -14 6 -6 3 7 2 16 -1 19 -3 4 -6 -2 -5 -13z"/>
<path d="M672 745 c0 -16 2 -22 5 -12 2 9 2 23 0 30 -3 6 -5 -1 -5 -18z"/>
<path d="M661 694 c0 -11 3 -14 6 -6 3 7 2 16 -1 19 -3 4 -6 -2 -5 -13z"/>
<path d="M1071 624 c0 -11 3 -14 6 -6 3 7 2 16 -1 19 -3 4 -6 -2 -5 -13z"/>
<path d="M646 615 c-3 -9 -6 -22 -5 -28 0 -7 5 -1 10 12 5 13 8 26 5 28 -2 2
-6 -3 -10 -12z"/>
<path d="M2042 565 c0 -11 4 -31 8 -45 6 -20 8 -21 8 -5 0 11 -4 31 -8 45 -6
20 -8 21 -8 5z"/>
<path d="M1055 530 c-4 -23 -5 -43 -2 -46 2 -3 7 14 11 37 4 23 5 44 2 46 -2
2 -7 -14 -11 -37z"/>
<path d="M632 530 c0 -14 2 -19 5 -12 2 6 2 18 0 25 -3 6 -5 1 -5 -13z"/>
</g>
</svg>
