<?xml version="1.0" standalone="no"?>
<!DOCTYPE svg PUBLIC "-//W3C//DTD SVG 20010904//EN"
 "http://www.w3.org/TR/2001/REC-SVG-20010904/DTD/svg10.dtd">
<svg version="1.0" xmlns="http://www.w3.org/2000/svg"
 width="470.000000pt" height="254.000000pt" viewBox="0 0 470.000000 254.000000"
 preserveAspectRatio="xMidYMid meet">

<g transform="translate(0.000000,254.000000) scale(0.100000,-0.100000)"
fill="#ffffff" stroke="none">
<path d="M50 2481 c0 -16 11 -19 88 -23 104 -6 149 -26 209 -91 34 -37 42 -54
48 -98 3 -30 5 -499 3 -1044 -3 -1098 2 -1013 -70 -1082 -46 -44 -89 -60 -190
-68 -65 -5 -88 -11 -88 -21 0 -12 101 -14 635 -14 537 0 635 2 635 14 0 10
-22 16 -82 21 -101 9 -150 29 -205 86 -34 35 -45 56 -53 98 -6 31 -10 239 -10
501 0 380 2 449 15 460 10 8 37 10 92 5 203 -18 349 -93 433 -225 36 -56 74
-171 91 -272 11 -64 16 -78 31 -78 17 0 18 28 18 605 0 586 -1 605 -19 605
-15 0 -20 -10 -26 -47 -12 -83 -53 -198 -93 -259 -46 -71 -131 -150 -190 -176
-94 -42 -311 -65 -340 -36 -17 17 -17 1009 0 1026 15 15 437 17 557 2 217 -28
394 -142 470 -304 26 -56 56 -163 63 -226 2 -17 10 -26 26 -28 l22 -3 0 345 0
346 -1035 0 c-1003 0 -1035 -1 -1035 -19z"/>
<path d="M2390 2481 c0 -16 11 -19 84 -23 58 -4 99 -13 130 -28 51 -24 110
-87 122 -128 12 -43 17 -1889 5 -1994 -18 -157 -78 -213 -247 -231 -67 -7 -94
-14 -94 -24 0 -11 184 -13 1090 -13 1031 0 1090 1 1090 18 0 19 76 736 84 790
4 28 2 32 -18 32 -21 0 -28 -14 -66 -123 -110 -316 -263 -507 -466 -577 -65
-23 -84 -24 -357 -28 -280 -4 -289 -3 -333 18 -70 34 -93 78 -105 197 -15 145
-7 1887 9 1933 17 52 66 105 118 131 36 17 71 23 145 27 88 4 99 7 99 23 0 18
-22 19 -645 19 -622 0 -645 -1 -645 -19z"/>
</g>
</svg>
